<?xml version="1.0" encoding="UTF-8" standalone="no"?>
<!DOCTYPE svg PUBLIC "-//W3C//DTD SVG 20010904//EN" "http://www.w3.org/TR/2001/REC-SVG-20010904/DTD/svg10.dtd">
<svg version="1.0" xmlns="http://www.w3.org/2000/svg" width="736.000000pt" height="736.000000pt" viewBox="0 0 736.000000 736.000000" preserveAspectRatio="xMidYMid meet">
<metadata>
Created by potrace 1.14, written by Peter Selinger 2001-2017
</metadata>
<g transform="translate(0.000000,736.000000) scale(0.100000,-0.100000)" fill="#000000" stroke="none">
<path d="M6373 4428 c-1 -409 1 -750 3 -759 4 -14 24 -16 139 -16 91 0 135 4 136 11 1 6 2 193 4 416 1 223 3 407 4 410 0 3 74 4 163 2 147 -2 165 -4 179 -22 15 -17 16 -65 16 -417 l-1 -398 138 -1 c122 -1 138 1 146 17 6 11 6 20 1 24 -6 3 -6 17 -1 34 5 19 4 33 -3 40 -8 8 -8 11 0 11 7 0 8 12 3 35 -4 20 -4 38 1 41 5 3 5 13 -1 25 -8 14 -7 19 1 19 9 0 9 3 0 14 -8 10 -9 16 -1 21 7 4 7 12 0 26 -8 14 -7 19 1 19 9 0 9 3 0 14 -8 10 -9 16 -1 21 7 4 7 12 0 26 -8 14 -7 19 1 19 9 0 9 3 0 14 -8 10 -9 16 -1 21 7 4 7 12 0 26 -6 10 -7 19 -3 19 4 0 6 34 3 76 -3 42 -2 78 2 81 5 2 3 13 -2 24 -7 12 -7 19 -1 19 6 0 9 6 6 13 -2 6 -6 49 -9 95 -11 180 -102 274 -276 288 -25 1 -45 3 -45 4 0 0 -35 2 -78 3 -42 1 -77 -1 -77 -5 0 -4 -11 -3 -25 2 -16 6 -26 6 -31 -1 -4 -7 -10 -7 -18 0 -9 7 -16 7 -23 0 -8 -8 -13 -7 -18 1 -5 8 -10 8 -20 0 -25 -21 -30 13 -31 220 l0 205 -141 3 -140 3 0 -743z"/>
<path d="M290 5072 c0 -4 -47 -6 -105 -4 -58 1 -106 -1 -106 -5 -1 -4 -3 -322 -4 -706 -1 -697 -1 -698 19 -702 12 -2 77 -3 146 -2 l125 2 0 260 0 260 25 5 c14 3 152 5 308 5 187 0 282 3 283 10 5 61 4 75 -5 75 -6 0 -5 4 2 9 17 11 17 21 0 32 -7 5 -8 9 -2 9 6 0 11 7 11 15 0 8 -5 15 -11 15 -6 0 -5 4 2 9 17 11 17 21 0 32 -7 5 -8 9 -2 9 6 0 11 7 11 15 0 8 -4 15 -9 15 -5 0 -6 5 -3 10 4 7 -98 10 -299 10 l-306 0 0 175 c0 133 3 175 13 176 6 1 154 2 327 3 173 0 320 4 327 9 10 6 10 41 -2 74 -2 6 -1 14 3 18 4 3 7 38 7 76 0 55 -4 74 -17 86 -10 9 -18 11 -18 5 0 -10 -35 -8 -67 3 -7 2 -13 1 -13 -3 0 -8 -205 -6 -226 2 -8 3 -14 1 -14 -4 0 -8 -38 -5 -67 5 -7 2 -13 1 -13 -3 0 -8 -205 -6 -226 2 -8 3 -14 1 -14 -4 0 -8 -38 -5 -67 5 -7 2 -13 1 -13 -3z"/>
<path d="M1970 5072 c0 -4 -39 -7 -87 -7 l-88 0 -2 -127 c-1 -92 2 -128 10 -129 7 -1 100 -3 207 -3 195 -2 230 -7 211 -30 -6 -7 -6 -17 -1 -26 5 -9 5 -19 -2 -27 -6 -7 -7 -13 -2 -13 11 0 10 -532 0 -548 -4 -7 -4 -12 1 -12 4 0 7 -53 5 -117 -3 -151 -3 -145 1 -168 2 -11 -1 -23 -7 -27 -6 -5 -7 -8 -1 -8 6 0 9 -29 8 -72 -2 -112 -13 -104 147 -105 77 0 141 2 141 6 1 3 2 259 3 568 1 309 5 565 9 569 4 4 101 8 215 8 l207 1 0 130 0 130 -190 2 c-104 1 -198 4 -207 7 -10 2 -18 1 -18 -2 0 -8 -206 -6 -226 2 -8 3 -14 1 -14 -4 0 -8 -38 -5 -67 5 -7 2 -13 1 -13 -3 0 -8 -205 -6 -226 2 -8 3 -14 2 -14 -2z"/>
<path d="M3330 5072 c0 -4 -49 -6 -110 -5 -60 1 -111 -1 -111 -5 -6 -30 -4 -230 2 -243 7 -14 42 -15 283 -15 152 1 276 -3 276 -8 0 -5 6 -4 13 0 15 12 66 12 68 0 2 -9 4 -7 -119 -174 -51 -70 -97 -128 -102 -130 -6 -2 -10 -10 -10 -18 0 -8 -7 -17 -15 -20 -8 -4 -12 -10 -9 -15 3 -5 0 -9 -5 -9 -6 0 -11 -6 -11 -14 0 -8 -4 -16 -8 -18 -4 -1 -41 -48 -82 -103 -127 -173 -155 -210 -162 -213 -5 -2 -8 -7 -8 -12 0 -4 -30 -49 -68 -98 l-67 -90 1 -109 c1 -59 3 -111 3 -114 1 -3 241 -6 535 -6 l534 0 4 29 c3 15 1 28 -4 28 -5 0 -6 6 -2 12 10 16 10 50 0 66 -4 6 -3 12 1 12 10 0 9 53 -2 69 -3 6 -1 11 5 11 7 0 8 6 2 17 -9 16 -32 25 -59 24 -16 -1 -39 -1 -55 0 -7 0 -25 -2 -40 -4 -14 -2 -32 -1 -39 3 -6 4 -25 4 -40 0 -18 -5 -29 -5 -29 1 0 6 -6 7 -12 3 -19 -12 -52 -13 -65 -2 -8 7 -13 7 -13 1 0 -11 -29 -11 -48 1 -6 4 -12 3 -12 -1 0 -12 -53 -10 -62 2 -5 7 -10 7 -15 0 -9 -12 -33 -13 -50 -2 -8 5 -13 3 -13 -3 0 -8 -7 -9 -17 -5 -10 4 -22 7 -28 6 -74 -7 -85 -6 -90 8 -3 9 0 20 7 26 7 6 24 26 38 45 13 19 28 40 32 45 5 6 45 60 89 120 104 142 119 163 147 197 13 15 21 28 18 28 -2 0 8 14 24 32 16 17 27 35 24 40 -3 4 -1 8 4 8 6 0 40 42 76 93 36 50 71 98 77 106 35 41 78 101 72 101 -4 0 3 7 15 16 12 8 22 22 22 30 0 8 4 14 9 14 5 0 9 52 8 118 l-2 117 -42 6 c-24 3 -43 3 -43 0 0 -7 -687 -4 -706 3 -8 3 -14 2 -14 -2z"/>
<path d="M1279 5061 c-1 -3 -3 -320 -4 -704 -1 -696 -1 -698 19 -702 29 -5 225 -5 256 1 l25 4 -3 704 -2 704 -145 0 c-80 0 -146 -3 -146 -7z"/>
<path d="M4317 4736 c-9 -7 -17 -19 -17 -25 0 -7 -4 -10 -10 -6 -5 3 -2 -16 6 -42 8 -26 16 -52 17 -58 2 -5 6 -16 10 -22 5 -7 5 -17 2 -23 -3 -5 -2 -10 3 -10 5 0 9 -6 10 -12 5 -44 16 -78 23 -78 5 0 8 -3 8 -7 -1 -5 -1 -10 1 -13 1 -3 3 -16 6 -30 2 -14 11 -45 19 -70 8 -25 15 -48 15 -52 1 -4 8 -24 16 -43 8 -20 12 -40 9 -45 -4 -6 -2 -10 3 -10 5 0 13 -15 17 -32 8 -36 11 -45 15 -53 3 -5 3 -6 15 -50 4 -16 10 -34 14 -40 6 -11 10 -28 13 -57 1 -10 5 -18 9 -18 7 0 24 -66 22 -87 0 -7 3 -13 8 -13 5 0 8 -3 7 -7 0 -5 2 -15 5 -23 3 -8 15 -47 26 -86 l21 -70 210 -1 c169 0 210 3 210 14 0 23 1 28 11 39 5 6 10 23 11 38 1 14 6 26 10 26 4 0 8 6 8 13 0 12 34 131 47 167 7 16 11 33 16 53 1 6 5 17 8 22 3 6 12 33 19 60 7 28 16 55 20 60 4 6 13 35 20 65 7 30 15 60 19 65 3 6 6 16 7 23 2 8 6 21 10 30 8 19 11 27 18 57 2 11 11 39 20 63 8 23 13 42 9 42 -3 0 -1 6 5 13 5 6 13 28 17 47 4 19 12 46 18 60 24 60 32 100 18 100 -6 0 -11 6 -11 14 0 12 -21 15 -95 18 -52 2 -95 -1 -95 -5 0 -4 -8 -3 -18 2 -33 18 -50 -7 -79 -116 -7 -29 -10 -39 -16 -53 -7 -18 -29 -98 -34 -124 -2 -11 -8 -25 -14 -33 -6 -7 -9 -13 -5 -13 3 0 0 -15 -8 -34 -8 -19 -12 -37 -9 -40 3 -3 0 -12 -7 -21 -7 -8 -9 -15 -6 -15 4 0 2 -9 -4 -21 -6 -11 -13 -28 -15 -38 -2 -10 -13 -51 -25 -92 -12 -41 -21 -74 -20 -74 1 0 -4 -13 -10 -30 -10 -27 -15 -43 -23 -80 -2 -5 -6 -16 -10 -22 -5 -7 -5 -17 -2 -23 3 -5 0 -10 -8 -10 -8 0 -18 8 -22 18 -9 19 -9 19 -28 87 -8 28 -20 61 -27 74 -10 19 -10 22 2 15 11 -6 11 -5 -1 9 -7 9 -10 17 -5 17 4 0 3 5 -4 12 -7 7 -12 22 -12 35 0 13 -4 23 -8 23 -4 0 -8 10 -10 23 -1 12 -10 47 -20 77 -11 30 -20 58 -21 63 0 4 -1 8 -2 10 0 1 -2 10 -4 20 -2 10 -7 26 -11 35 -4 9 -8 22 -9 27 0 6 -4 17 -7 25 -3 8 -12 38 -19 65 -6 28 -15 55 -18 60 -3 6 -6 15 -7 20 -1 6 -8 30 -15 55 -7 25 -12 48 -11 52 1 4 -8 10 -21 12 -39 9 -127 11 -127 4 0 -4 -11 -3 -25 2 -16 6 -26 6 -31 -1 -4 -6 -10 -7 -17 0 -8 6 -18 5 -30 -3z"/>
<path d="M5816 4741 c-3 -4 -16 -6 -28 -4 -20 4 -46 0 -118 -18 -8 -2 -17 -7 -20 -11 -3 -3 -12 -8 -20 -10 -8 -2 -33 -21 -55 -43 l-40 -40 -3 -481 -3 -480 133 1 c170 2 161 1 155 27 -4 12 -1 28 5 35 6 7 7 13 2 13 -11 0 -11 211 0 228 4 6 4 12 -1 12 -10 0 -10 211 1 228 4 6 4 12 -1 12 -10 0 -10 211 1 228 4 6 3 12 -3 12 -6 0 -8 6 -5 14 9 22 52 28 207 28 l142 -1 1 77 c0 69 -10 102 -30 102 -6 0 -37 24 -63 49 -8 8 -25 16 -37 17 -11 1 -21 3 -21 4 0 0 -35 2 -78 3 -42 1 -77 -2 -77 -6 0 -4 -9 -3 -19 3 -11 5 -22 6 -25 1z"/>
<path d="M335 3440 c-11 -5 -45 -18 -76 -30 -63 -24 -97 -47 -150 -104 -32 -33 -79 -111 -85 -141 -2 -5 -7 -24 -12 -41 -6 -18 -10 -157 -10 -309 0 -220 3 -288 16 -333 23 -86 120 -221 160 -222 6 0 12 -4 12 -8 0 -10 71 -47 84 -43 4 1 14 -3 21 -9 7 -6 33 -12 58 -14 25 -2 50 -7 56 -10 6 -4 11 -4 11 1 0 4 43 6 96 3 53 -3 98 -2 101 3 2 4 13 2 24 -3 10 -6 19 -7 19 -3 0 4 43 6 96 3 53 -3 98 -2 101 3 2 4 13 2 24 -3 10 -6 19 -7 19 -3 0 4 43 6 96 3 53 -3 98 -2 101 3 2 4 13 2 24 -3 10 -6 19 -7 19 -3 0 4 43 6 96 3 53 -3 98 -2 101 3 2 4 13 2 24 -3 10 -6 19 -7 19 -3 0 4 43 6 96 3 53 -3 98 -2 101 3 2 4 13 2 24 -3 10 -6 19 -7 19 -3 0 4 43 6 96 3 53 -3 98 -2 101 3 2 4 13 2 24 -3 10 -6 19 -7 19 -3 0 4 43 6 96 3 53 -3 98 -2 101 3 2 4 13 2 24 -3 10 -6 19 -7 19 -3 0 4 43 6 96 3 53 -3 98 -2 101 3 2 4 13 2 24 -3 10 -6 19 -7 19 -3 0 4 43 6 96 3 53 -3 98 -2 101 3 2 4 13 2 24 -3 10 -6 19 -7 19 -3 0 4 43 6 96 3 53 -3 98 -2 101 3 2 4 13 2 24 -3 10 -6 19 -7 19 -3 0 4 43 6 96 3 53 -3 98 -2 101 3 2 4 13 2 24 -3 10 -6 19 -7 19 -3 0 4 43 6 96 3 53 -3 98 -2 101 3 2 4 13 2 24 -3 10 -6 19 -7 19 -3 0 4 43 6 96 3 53 -3 98 -2 101 3 2 4 13 2 24 -3 10 -6 19 -7 19 -3 0 4 43 6 96 3 53 -3 98 -2 101 3 2 4 13 2 24 -3 10 -6 19 -7 19 -3 0 4 43 6 96 3 53 -3 98 -2 101 3 2 4 13 2 24 -3 10 -6 19 -7 19 -3 0 4 43 6 96 3 53 -3 98 -2 101 3 2 4 13 2 24 -3 10 -6 19 -7 19 -3 0 4 43 6 96 3 53 -3 98 -2 101 3 2 4 13 2 24 -3 10 -6 19 -7 19 -3 0 4 43 6 96 3 53 -3 98 -2 101 3 2 4 13 2 24 -3 10 -6 19 -7 19 -3 0 4 43 6 96 3 53 -3 98 -2 101 3 2 4 13 2 24 -3 10 -6 19 -7 19 -3 0 4 61 6 136 3 75 -3 138 -2 141 3 2 4 13 2 24 -3 10 -6 19 -7 19 -3 0 4 43 6 96 3 53 -3 98 -2 101 3 2 4 13 2 24 -3 10 -6 19 -7 19 -3 0 4 43 6 96 3 53 -3 98 -2 101 3 2 4 13 2 24 -3 10 -6 19 -7 19 -3 0 4 43 6 96 3 53 -3 98 -2 101 3 2 4 13 2 24 -3 10 -6 19 -7 19 -3 0 4 43 6 96 3 53 -3 98 -2 101 3 2 4 13 2 24 -3 10 -6 19 -7 19 -3 0 4 43 6 96 3 53 -3 98 -2 101 3 2 4 13 2 24 -3 10 -6 19 -7 19 -3 0 4 43 6 96 3 53 -3 98 -2 101 3 2 4 13 2 24 -3 10 -6 19 -7 19 -3 0 4 43 6 96 3 53 -3 97 -3 100 -1 2 2 20 5 41 6 39 2 124 25 133 35 3 3 18 12 35 20 82 42 174 173 192 276 10 54 9 563 -1 607 -14 61 -87 193 -100 180 -3 -4 -6 0 -6 8 -1 16 -66 69 -86 69 -6 0 -15 7 -18 16 -3 8 -10 13 -15 9 -5 -3 -12 -1 -16 5 -4 6 -10 8 -15 5 -5 -3 -11 -1 -15 5 -3 5 -19 10 -34 10 -15 0 -31 3 -35 7 -10 10 -6617 10 -6623 -1 -3 -4 -8 -4 -12 2 -3 5 -15 6 -26 2z"/>
</g>
</svg>